<svg version="1.1" xmlns="http://www.w3.org/2000/svg" xmlns:xlink="http://www.w3.org/1999/xlink" x="0px" y="0px"
	 viewBox="0 0 365 315" style="enable-background:new 0 0 365 315;" xml:space="preserve">
<style type="text/css">

	.st1{fill-rule:evenodd;clip-rule:evenodd;}
	.st2{fill-rule:evenodd;clip-rule:evenodd;}
	.st3{fill-rule:evenodd;clip-rule:evenodd;}
	.st4{fill-rule:evenodd;clip-rule:evenodd;fill:none;stroke:#1C5A98;stroke-width:2;stroke-miterlimit:10;}
	.st5{fill-rule:evenodd;clip-rule:evenodd;}
	.st6{fill-rule:evenodd;clip-rule:evenodd;}
	.st7{fill-rule:evenodd;clip-rule:evenodd;}
	.st8{fill-rule:evenodd;clip-rule:evenodd;fill:none;stroke:#479E11;stroke-width:2;stroke-miterlimit:10;}
	.st9{stroke:#1C5A98;stroke-miterlimit:10;}
	.st10{stroke:#1C5A98;stroke-miterlimit:10;}
	.st11{stroke:#1C5A98;stroke-miterlimit:10;}
	.st12{stroke:#1C5A98;stroke-miterlimit:10;}
	.st13{stroke:#1C5A98;stroke-miterlimit:10;}
	.st14{stroke:#1C5A98;stroke-miterlimit:10;}
	.st15{stroke:#1C5A98;stroke-miterlimit:10;}
	.st16{fill:none;stroke:#1C5A98;stroke-miterlimit:10;}
</style>








<defs>
	<style>
		.st1,.st3,.st5,.st7{
			-webkit-animation: opac 2s linear forwards;
			-o-animation: opac 2s linear forwards;
			-moz-animation: opac 2s linear forwards;
			animation: opac 2s linear forwards;
			-webkit-animation-delay: 2s;
			-moz-animation-delay: 2s;
			-o-animation-delay: 2s;
			animation-delay: 2s;opacity:0
		}
		
		.st2,.st6{
			-webkit-animation: opac 2s linear forwards;
			-o-animation: opac 2s linear forwards;
			-moz-animation: opac 2s linear forwards;
			animation: opac 2s linear forwards;
			-webkit-animation-delay: 3s;
			-moz-animation-delay: 3s;
			-o-animation-delay: 3s;
			animation-delay: 3s;opacity:0
		}
		
		.st1{
			fill:url(#SVGID_1_);
		}
		.st2{
			fill:url(#SVGID_2_);
		}
		.st3{
			fill:url(#SVGID_3_);
		}
		.st5{
			fill:url(#SVGID_4_);
		}
		.st6{
			fill:url(#SVGID_5_);
		}
		.st7{
			fill:url(#SVGID_6_);
		}
		
		
		
		@-webkit-keyframes opac{
			from{
				opacity:0
			}
			to{
				opacity:1
			}
		}
		
		
		
		
		
		
		
		
		
		
		
		
		
		.st9,.st10,.st11,.st12,.st13,.st14,.st15{
			-webkit-animation: opacc 2s linear forwards;
			-o-animation: opacc 2s linear forwards;
			-moz-animation: opacc 2s linear forwards;
			animation: opacc 2s linear forwards;
			-webkit-animation-delay: 2s;
			-moz-animation-delay: 2s;
			-o-animation-delay: 2s;
			animation-delay: 2s;opacity:0
		}
		.st9{
			fill:url(#SVGID_7_);
		}
		.st10{
			fill:url(#SVGID_8_);
		}
		.st11{
			fill:url(#SVGID_9_);
		}
		.st12{
			fill:url(#SVGID_10_);
		}
		.st13{
			fill:url(#SVGID_11_);
		}
		.st14{
			fill:url(#SVGID_12_);
		}
		.st15{
			fill:url(#SVGID_13_);
		}
		
		
		
		@-webkit-keyframes opacc{
			from{
				opacity:0
			}
			to{
				opacity:1
			}
		}
		
		
		
		
		
		
		
		
		
		
		
		
		
		
		
		
		
		
		
		
		.st4,.st8{
			stroke-dasharray:2000;
			stroke-dashoffset:0;
			-webkit-animation: dash 7s linear forwards;
			-o-animation: dash 7s linear forwards;
			-moz-animation: dash 7s linear forwards;
			animation: dash 7s linear forwards;
			
		}
		@-webkit-keyframes dash{
			0%{
				stroke-dashoffset:2000;
			}
			50%{
				stroke-dashoffset:0;
			}
			100%{
				opacity:0;
			}
		}
		.st16{
			stroke-dasharray:2000;
			stroke-dashoffset:0;
			-webkit-animation: dashs 37s linear forwards;
			-o-animation: dashs 37s linear forwards;
			-moz-animation: dashs 37s linear forwards;
			animation: dashs 37s linear forwards;
		}
		@-webkit-keyframes dashs{
			0%{
				stroke-dashoffset:2000;
			}
			50%{
				stroke-dashoffset:0;
			}
			100%{
				opacity:0;
			}
		}
	
		
		
		
		
		
		
		
		@keyframes chevronAnimation {
0%, 100% {
    transform: translate(0px, 0px) scale(1, 1);
}
50% {
    transform: translate(0px, 5px) scale(0.8, 0.8);
}
}
@keyframes chevronAnimation {
0%, 100% {
    transform: translate(0px, 0px) scale(1, 1);
}
50% {
    transform: translate(0px, 5px) scale(0.8, 0.8);
}
}
@keyframes chevronAnimation {
0%, 100% {
    transform: translate(0px, 0px) scale(1, 1);
}
50% {
    transform: translate(0px, 5px) scale(0.8, 0.8);
}
}
	</style>
</defs>











<g id="градиент_1_">
	<linearGradient id="SVGID_1_" gradientUnits="userSpaceOnUse" x1="31.2206" y1="15.2095" x2="187.0838" y2="150.6993">
		<stop  offset="0" style="stop-color:#fff"/>
		<stop  offset="0.2331" style="stop-color:#fff"/>
		<stop  offset="0.4632" style="stop-color:#fff"/>
		<stop  offset="0.692" style="stop-color:#fff"/>
		<stop  offset="0.9189" style="stop-color:#fff"/>
		<stop  offset="1" style="stop-color:#fff"/>
	</linearGradient>
	<path class="st1" d="M30,4l125.498,68.577c0,0,18.847,9.69,18.923,27.855c0.076,18.164,0,49.805,0,49.805
		s0.627,12.561-8.085,18.867c-8.713,6.307-9.567,6.626-9.916,6.814c0,0,8.118-5.058,7.852-15.05
		c-0.266-9.993-17.617-19.055-28.623-25.557c0,0-29.488-16.138-31.992-18.038C97.549,113.319,37.418,74.697,30,4z"/>
	<linearGradient id="SVGID_2_" gradientUnits="userSpaceOnUse" x1="14.7792" y1="-43.7994" x2="253.1169" y2="240.2404">
		<stop  offset="0" style="stop-color:#fff"/>
		<stop  offset="0.2668" style="stop-color:#fff"/>
		<stop  offset="0.4811" style="stop-color:#fff"/>
		<stop  offset="0.6772" style="stop-color:#fff"/>
		<stop  offset="0.8612" style="stop-color:#fff"/>
		<stop  offset="1" style="stop-color:#fff"/>
	</linearGradient>
	<path class="st2" d="M30,4l125.498,68.577c0,0,18.848,9.691,18.923,27.855c0.075,18.164,0.031,28.083,0.031,28.083
		s-1.184-14.066-29.152-30.936c-7.065-4.262-53.341-29.286-55.007-30.21c-5.325-2.953-36.459-18.855-51.215-26.505
		C37.56,36.372,31.364,20.501,30,4z"/>
	<linearGradient id="SVGID_3_" gradientUnits="userSpaceOnUse" x1="155.3517" y1="146.0563" x2="100.8357" y2="195.1428">
		<stop  offset="0" style="stop-color:#6A778E"/>
		<stop  offset="1" style="stop-color:#fff"/>
	</linearGradient>
	<path class="st3" d="M150.928,144.501c12.569,8.426,13.46,13.151,13.481,17.296c-0.034,4.964-3.205,11.01-7.99,14.122
		c-4.785,3.112-45.429,27.606-45.429,27.606s-10.697,5.166-10.697-10.694c0-15.86,13.413-47.152,35.212-57.598
		C139.795,137.659,148.101,142.605,150.928,144.501z"/>
</g>
<g id="Однотонный-_контур">
	<path class="st4" d="M174.452,128.515c0,0,0.044-9.919-0.031-28.083c-0.002-0.568-0.023-1.127-0.061-1.678
		c-0.063-0.92-0.185-1.812-0.338-2.686c-0.073-0.412-0.155-0.818-0.246-1.22c-0.178-0.787-0.38-1.559-0.622-2.306
		c-0.011-0.033-0.024-0.064-0.034-0.096c-0.231-0.703-0.494-1.384-0.775-2.051c-0.212-0.505-0.436-1-0.674-1.484
		c-0.159-0.326-0.323-0.647-0.493-0.963c-4.72-8.801-13.149-13.953-15.214-15.118c-0.3-0.169-0.466-0.255-0.466-0.255L30,4
		c0.517,6.256,1.729,12.42,3.117,17.909c1.187,4.864,2.615,9.546,4.241,14.047c0.748,2.168,1.364,3.854,1.72,4.908
		c0.064,0.033,0.133,0.069,0.197,0.102c19.14,47.212,59.44,73.108,64.381,76.307c2.408,1.827,29.745,16.808,31.85,17.96
		c-21.799,10.446-35.212,41.738-35.212,57.598s10.697,10.694,10.697,10.694s40.645-24.495,45.429-27.606
		c0.189-0.123,0.371-0.258,0.555-0.39c-0.338,0.25-0.555,0.39-0.555,0.39c0.349-0.187,1.203-0.507,9.916-6.814
		c8.712-6.307,8.085-18.867,8.085-18.867S174.444,140.381,174.452,128.515L174.452,128.515z M135.649,135.311
		c0.052,0.031,0.107,0.063,0.159,0.094c-0.098-0.056-0.203-0.116-0.297-0.169C135.593,135.28,135.649,135.311,135.649,135.311z"/>
</g>
<g id="градиент">
	<linearGradient id="SVGID_4_" gradientUnits="userSpaceOnUse" x1="335.3877" y1="245.2101" x2="181.5372" y2="106.6825">
		<stop  offset="0" style="stop-color:#fff"/>
		<stop  offset="1" style="stop-color:#fff"/>
	</linearGradient>
	<path class="st5" d="M330,246.469l-125.498-68.577c0,0-18.847-9.69-18.923-27.855c-0.076-18.164,0-49.805,0-49.805
		s-0.627-12.56,8.085-18.867c8.712-6.307,9.567-6.626,9.916-6.814c0,0-8.118,5.058-7.852,15.05
		c0.266,9.993,17.617,19.055,28.623,25.557c0,0,29.488,16.138,31.992,18.038C262.451,137.15,322.582,175.773,330,246.469z"/>
	<linearGradient id="SVGID_5_" gradientUnits="userSpaceOnUse" x1="399.3855" y1="364.9761" x2="166.7275" y2="77.6674">
		<stop  offset="0" style="stop-color:#fff"/>
		<stop  offset="0.2744" style="stop-color:#fff"/>
		<stop  offset="0.4947" style="stop-color:#fff"/>
		<stop  offset="0.6962" style="stop-color:#fff"/>
		<stop  offset="0.8855" style="stop-color:#fff"/>
		<stop  offset="1" style="stop-color:#fff"/>
	</linearGradient>
	<path class="st6" d="M330,246.469l-125.498-68.577c0,0-18.848-9.691-18.923-27.855s-0.031-28.083-0.031-28.083
		s1.185,14.066,29.152,30.936c7.065,4.262,53.341,29.286,55.007,30.21c5.325,2.953,36.459,18.855,51.215,26.505
		C322.44,214.097,328.636,229.968,330,246.469z"/>
	<linearGradient id="SVGID_6_" gradientUnits="userSpaceOnUse" x1="207.1627" y1="101.7997" x2="262.5391" y2="53.6617">
		<stop  offset="0" style="stop-color:#6A778E"/>
		<stop  offset="1" style="stop-color:#fff"/>
	</linearGradient>
	<path class="st7" d="M209.072,105.968c-12.569-8.426-13.46-13.151-13.481-17.296c0.034-4.964,3.205-11.01,7.99-14.122
		c4.785-3.112,45.429-27.606,45.429-27.606s10.697-5.166,10.697,10.694c0,15.86-13.413,47.152-35.212,57.598
		C220.205,112.81,211.899,107.864,209.072,105.968z"/>
</g>
<g id="однотонный_-контур">
	<path class="st8" d="M326.882,228.557c-1.186-4.861-2.614-9.542-4.239-14.041c-0.749-2.169-1.364-3.856-1.721-4.91
		c-0.064-0.033-0.133-0.069-0.198-0.102c-19.14-47.212-59.44-73.108-64.381-76.307c-2.407-1.827-29.745-16.808-31.85-17.96
		c21.799-10.446,35.212-41.738,35.212-57.598c0-15.86-10.697-10.694-10.697-10.694s-40.644,24.495-45.429,27.606
		c-0.189,0.123-0.371,0.258-0.555,0.39c0.338-0.25,0.555-0.39,0.555-0.39c-0.349,0.187-1.203,0.507-9.916,6.814
		c-8.712,6.307-8.085,18.867-8.085,18.867s-0.024,9.857-0.031,21.724l0-0.001c0,0-0.044,9.919,0.031,28.083
		c0.002,0.568,0.023,1.127,0.061,1.678c0.151,2.204,0.578,4.275,1.206,6.211c0.011,0.033,0.024,0.064,0.034,0.096
		c0.465,1.416,1.036,2.761,1.688,4.03c0.594,1.158,1.258,2.249,1.962,3.283c0.106,0.156,0.21,0.314,0.317,0.467
		c4.797,6.806,11.395,10.823,13.189,11.835c0.3,0.169,0.466,0.255,0.466,0.255L330,246.469
		C329.483,240.212,328.27,234.047,326.882,228.557z M224.352,115.158c-0.052-0.031-0.107-0.063-0.159-0.094
		c0.098,0.056,0.203,0.116,0.297,0.169C224.407,115.189,224.352,115.158,224.352,115.158z"/>
</g>
<g id="Текст_-кривые_x2C__градиент">
	<g>
		<linearGradient id="SVGID_7_" gradientUnits="userSpaceOnUse" x1="25.9873" y1="309.2803" x2="25.9873" y2="265.6025">
			<stop  offset="0" style="stop-color:#0F559A"/>
			<stop  offset="1" style="stop-color:#1B77D4"/>
		</linearGradient>
		<path class="st9" d="M14.851,269.982c4.86-3.3,10.56-4.38,19.02-4.38c5.1,0,9.66,0.479,13.799,1.439l-2.76,7.14
			c-2.76-0.84-6.36-1.26-10.86-1.26c-5.459,0-8.339,0.3-11.459,1.32c-4.56,1.739-6.359,5.22-8.219,12.959
			c-1.14,5.22-1.02,8.52-0.06,10.739c0.54,1.08,1.44,1.92,2.7,2.521c2.64,1.14,5.58,1.439,10.919,1.439
			c4.38,0,8.16-0.42,11.34-1.199l-0.3,7.259c-4.38,0.9-9.18,1.32-14.339,1.32c-16.259,0-22.979-5.1-19.379-22.139
			C7.111,278.682,10.051,273.162,14.851,269.982z"/>
		<linearGradient id="SVGID_8_" gradientUnits="userSpaceOnUse" x1="72.9635" y1="309.2803" x2="72.9635" y2="265.6025">
			<stop  offset="0" style="stop-color:#0F559A"/>
			<stop  offset="1" style="stop-color:#1B77D4"/>
		</linearGradient>
		<path class="st10" d="M97.409,287.142c-1.86,8.579-4.86,14.219-9.84,17.579c-4.979,3.3-10.799,4.56-19.259,4.56
			c-16.379,0-23.399-4.92-19.799-22.139c1.74-8.4,4.919-13.979,9.779-17.159c4.98-3.181,10.68-4.38,19.259-4.38
			C93.809,265.603,101.068,270.162,97.409,287.142z M84.269,297.94c1.74-2.399,2.94-5.459,4.08-10.679
			c1.14-5.22,1.14-8.34,0.36-10.56c-0.72-2.221-3.24-3.24-6.36-3.66c-1.56-0.18-3.66-0.3-6.3-0.3c-2.64,0-4.8,0.12-6.419,0.3
			c-3.3,0.42-6.24,1.439-7.98,3.66c-1.68,2.22-2.88,5.34-4.02,10.56c-2.76,12.599-0.12,14.938,12.179,14.879
			C77.369,302.021,81.269,301.421,84.269,297.94z"/>
		<linearGradient id="SVGID_9_" gradientUnits="userSpaceOnUse" x1="127.3053" y1="308.4404" x2="127.3053" y2="266.6221">
			<stop  offset="0" style="stop-color:#0F559A"/>
			<stop  offset="1" style="stop-color:#1B77D4"/>
		</linearGradient>
		<path class="st11" d="M112.47,266.622h26.819c3.48,0,6.18,0.54,8.1,1.68c1.98,1.08,3.12,2.521,3.42,4.32s0.3,3.84-0.12,6.18
			c-1.62,7.439-6.899,11.279-15.899,11.459c1.5,0.48,3.18,2.04,5.16,4.681c1.979,2.64,4.74,7.14,8.399,13.499h-11.16
			c-3.18-5.88-5.76-10.02-7.74-12.359c-1.979-2.4-3.959-3.6-5.879-3.6h-8.22l-3.36,15.959h-8.4L112.47,266.622z M119.43,273.342
			l-2.7,12.6h14.16c5.76,0,8.939-1.14,9.959-6.12c0.96-4.619-0.78-6.479-5.4-6.479H119.43z"/>
		<linearGradient id="SVGID_10_" gradientUnits="userSpaceOnUse" x1="179.6158" y1="309.2803" x2="179.6158" y2="265.6025">
			<stop  offset="0" style="stop-color:#0F559A"/>
			<stop  offset="1" style="stop-color:#1B77D4"/>
		</linearGradient>
		<path class="st12" d="M190.229,290.681h-11.64l1.439-6.659h20.279l-5.039,23.639c-4.74,1.08-10.86,1.62-18.42,1.62
			c-16.259,0-22.979-5.1-19.379-22.139c1.86-8.46,5.04-14.04,10.139-17.22c5.22-3.18,11.1-4.319,19.919-4.319
			c6.24,0,11.279,0.42,15.18,1.26l-2.82,7.26c-1.14-0.3-3.119-0.54-5.999-0.84c-2.82-0.301-5.16-0.48-7.021-0.48
			c-2.34,0-4.319,0.061-5.88,0.18c-3.06,0.24-6.239,0.96-8.159,2.221c-3,2.1-4.92,5.52-6.24,11.999c-1.14,5.22-1.02,8.46-0.06,10.8
			c0.54,1.14,1.44,1.979,2.7,2.58c2.58,1.14,5.52,1.5,10.859,1.5c2.76,0,5.4-0.181,7.86-0.601L190.229,290.681z"/>
		<linearGradient id="SVGID_11_" gradientUnits="userSpaceOnUse" x1="230.8642" y1="308.4404" x2="230.8642" y2="266.6221">
			<stop  offset="0" style="stop-color:#0F559A"/>
			<stop  offset="1" style="stop-color:#1B77D4"/>
		</linearGradient>
		<path class="st13" d="M216.029,266.622h26.818c3.48,0,6.18,0.54,8.1,1.68c1.98,1.08,3.12,2.521,3.42,4.32s0.3,3.84-0.12,6.18
			c-1.619,7.439-6.899,11.279-15.899,11.459c1.5,0.48,3.181,2.04,5.16,4.681c1.979,2.64,4.74,7.14,8.399,13.499h-11.159
			c-3.18-5.88-5.76-10.02-7.74-12.359c-1.979-2.4-3.959-3.6-5.879-3.6h-8.22l-3.36,15.959h-8.399L216.029,266.622z M222.988,273.342
			l-2.699,12.6h14.159c5.76,0,8.939-1.14,9.96-6.12c0.96-4.619-0.78-6.479-5.4-6.479H222.988z"/>
		<linearGradient id="SVGID_12_" gradientUnits="userSpaceOnUse" x1="283.978" y1="308.4404" x2="283.978" y2="266.6221">
			<stop  offset="0" style="stop-color:#0F559A"/>
			<stop  offset="1" style="stop-color:#1B77D4"/>
		</linearGradient>
		<path class="st14" d="M300.747,308.44c-0.659-1.86-1.619-5.34-2.88-10.439h-24.778l-6.24,10.439h-9.18
			c8.22-13.499,17.579-27.479,28.079-41.818h14.34c2.699,15.06,6.119,29.039,10.199,41.818H300.747z M289.288,273.342
			c-3.9,5.399-7.92,11.34-12,17.879h19.14c-1.021-4.319-2.22-10.259-3.6-17.879H289.288z"/>
		<linearGradient id="SVGID_13_" gradientUnits="userSpaceOnUse" x1="338.6978" y1="309.2803" x2="338.6978" y2="265.6025">
			<stop  offset="0" style="stop-color:#0F559A"/>
			<stop  offset="1" style="stop-color:#1B77D4"/>
		</linearGradient>
		<path class="st15" d="M358.106,274.422c-4.02-1.08-8.52-1.62-13.439-1.62c-4.859,0-8.339,0.36-10.319,1.14
			c-1.979,0.78-3.18,2.221-3.659,4.32c-0.36,1.74,0.18,3,1.619,3.72c1.44,0.72,4.68,1.26,9.66,1.62
			c11.699,0.899,16.139,4.62,14.459,12.539c-1.02,4.86-3.479,8.22-7.319,10.2c-3.84,1.979-9.66,2.939-17.52,2.939
			c-6.3,0-11.459-0.54-15.359-1.62l3.18-7.199c3.84,1.08,8.34,1.62,13.5,1.62c4.92,0,8.399-0.36,10.439-1.141
			c2.1-0.779,3.359-2.22,3.84-4.38c0.66-3.479-0.72-4.8-11.64-5.819c-11.1-0.78-15.72-4.08-14.1-11.52
			c2.1-9.66,9.84-13.619,24.779-13.619c6.18,0,11.159,0.54,14.939,1.619L358.106,274.422z"/>
	</g>
</g>
<g id="Текст_-кривые_x2C__градиент__x28_копия_x29_">
	<g>
		<path class="st16" d="M14.851,269.982c4.86-3.3,10.56-4.38,19.02-4.38c5.1,0,9.66,0.479,13.799,1.439l-2.76,7.14
			c-2.76-0.84-6.36-1.26-10.86-1.26c-5.459,0-8.339,0.3-11.459,1.32c-4.56,1.739-6.359,5.22-8.219,12.959
			c-1.14,5.22-1.02,8.52-0.06,10.739c0.54,1.08,1.44,1.92,2.7,2.521c2.64,1.14,5.58,1.439,10.919,1.439
			c4.38,0,8.16-0.42,11.34-1.199l-0.3,7.259c-4.38,0.9-9.18,1.32-14.339,1.32c-16.259,0-22.979-5.1-19.379-22.139
			C7.111,278.682,10.051,273.162,14.851,269.982z"/>
		<path class="st16" d="M97.409,287.142c-1.86,8.579-4.86,14.219-9.84,17.579c-4.979,3.3-10.799,4.56-19.259,4.56
			c-16.379,0-23.399-4.92-19.799-22.139c1.74-8.4,4.919-13.979,9.779-17.159c4.98-3.181,10.68-4.38,19.259-4.38
			C93.809,265.603,101.068,270.162,97.409,287.142z M84.269,297.94c1.74-2.399,2.94-5.459,4.08-10.679
			c1.14-5.22,1.14-8.34,0.36-10.56c-0.72-2.221-3.24-3.24-6.36-3.66c-1.56-0.18-3.66-0.3-6.3-0.3c-2.64,0-4.8,0.12-6.419,0.3
			c-3.3,0.42-6.24,1.439-7.98,3.66c-1.68,2.22-2.88,5.34-4.02,10.56c-2.76,12.599-0.12,14.938,12.179,14.879
			C77.369,302.021,81.269,301.421,84.269,297.94z"/>
		<path class="st16" d="M112.47,266.622h26.819c3.48,0,6.18,0.54,8.1,1.68c1.98,1.08,3.12,2.521,3.42,4.32s0.3,3.84-0.12,6.18
			c-1.62,7.439-6.899,11.279-15.899,11.459c1.5,0.48,3.18,2.04,5.16,4.681c1.979,2.64,4.74,7.14,8.399,13.499h-11.16
			c-3.18-5.88-5.76-10.02-7.74-12.359c-1.979-2.4-3.959-3.6-5.879-3.6h-8.22l-3.36,15.959h-8.4L112.47,266.622z M119.43,273.342
			l-2.7,12.6h14.16c5.76,0,8.939-1.14,9.959-6.12c0.96-4.619-0.78-6.479-5.4-6.479H119.43z"/>
		<path class="st16" d="M190.229,290.681h-11.64l1.439-6.659h20.279l-5.039,23.639c-4.74,1.08-10.86,1.62-18.42,1.62
			c-16.259,0-22.979-5.1-19.379-22.139c1.86-8.46,5.04-14.04,10.139-17.22c5.22-3.18,11.1-4.319,19.919-4.319
			c6.24,0,11.279,0.42,15.18,1.26l-2.82,7.26c-1.14-0.3-3.119-0.54-5.999-0.84c-2.82-0.301-5.16-0.48-7.021-0.48
			c-2.34,0-4.319,0.061-5.88,0.18c-3.06,0.24-6.239,0.96-8.159,2.221c-3,2.1-4.92,5.52-6.24,11.999c-1.14,5.22-1.02,8.46-0.06,10.8
			c0.54,1.14,1.44,1.979,2.7,2.58c2.58,1.14,5.52,1.5,10.859,1.5c2.76,0,5.4-0.181,7.86-0.601L190.229,290.681z"/>
		<path class="st16" d="M216.029,266.622h26.818c3.48,0,6.18,0.54,8.1,1.68c1.98,1.08,3.12,2.521,3.42,4.32s0.3,3.84-0.12,6.18
			c-1.619,7.439-6.899,11.279-15.899,11.459c1.5,0.48,3.181,2.04,5.16,4.681c1.979,2.64,4.74,7.14,8.399,13.499h-11.159
			c-3.18-5.88-5.76-10.02-7.74-12.359c-1.979-2.4-3.959-3.6-5.879-3.6h-8.22l-3.36,15.959h-8.399L216.029,266.622z M222.988,273.342
			l-2.699,12.6h14.159c5.76,0,8.939-1.14,9.96-6.12c0.96-4.619-0.78-6.479-5.4-6.479H222.988z"/>
		<path class="st16" d="M300.747,308.44c-0.659-1.86-1.619-5.34-2.88-10.439h-24.778l-6.24,10.439h-9.18
			c8.22-13.499,17.579-27.479,28.079-41.818h14.34c2.699,15.06,6.119,29.039,10.199,41.818H300.747z M289.288,273.342
			c-3.9,5.399-7.92,11.34-12,17.879h19.14c-1.021-4.319-2.22-10.259-3.6-17.879H289.288z"/>
		<path class="st16" d="M358.106,274.422c-4.02-1.08-8.52-1.62-13.439-1.62c-4.859,0-8.339,0.36-10.319,1.14
			c-1.979,0.78-3.18,2.221-3.659,4.32c-0.36,1.74,0.18,3,1.619,3.72c1.44,0.72,4.68,1.26,9.66,1.62
			c11.699,0.899,16.139,4.62,14.459,12.539c-1.02,4.86-3.479,8.22-7.319,10.2c-3.84,1.979-9.66,2.939-17.52,2.939
			c-6.3,0-11.459-0.54-15.359-1.62l3.18-7.199c3.84,1.08,8.34,1.62,13.5,1.62c4.92,0,8.399-0.36,10.439-1.141
			c2.1-0.779,3.359-2.22,3.84-4.38c0.66-3.479-0.72-4.8-11.64-5.819c-11.1-0.78-15.72-4.08-14.1-11.52
			c2.1-9.66,9.84-13.619,24.779-13.619c6.18,0,11.159,0.54,14.939,1.619L358.106,274.422z"/>
	</g>
</g>
</svg>
