<svg
   width="1000"
   height="1000"
   xmlns="http://www.w3.org/2000/svg"
   version="1.1">
  <defs>
    <linearGradient id="svg_4" gradientTransform="matrix(2.5598,0,0,2.5598,88.53,173.37)" gradientUnits="userSpaceOnUse" x1="9.72" y1="15.94" x2="167.91" y2="153.44">
      <stop stop-color="#1b73cd" offset="0"/>
      <stop stop-color="#1a70c9" offset="0.23"/>
      <stop stop-color="#1669bd" offset="0.46"/>
      <stop stop-color="#115ca9" offset="0.69"/>
      <stop stop-color="#084b8e" offset="0.92"/>
      <stop stop-color="#054382" offset="1"/>
    </linearGradient>
    <linearGradient id="svg_3" gradientTransform="matrix(2.5598,0,0,2.5598,88.53,173.37)" gradientUnits="userSpaceOnUse" x1="135.7" y1="148.73" x2="80.37" y2="198.55">
      <stop stop-color="#113e82" offset="0"/>
      <stop stop-color="#289edc" offset="1"/>
    </linearGradient>
    <linearGradient id="svg_2" gradientTransform="matrix(2.5598,0,0,2.5598,88.53,173.37)" gradientUnits="userSpaceOnUse" x1="318.42" y1="249.36" x2="162.28" y2="108.77">
      <stop stop-color="#ffd80c" offset="0"/>
      <stop stop-color="#ff9f19" offset="1"/>
    </linearGradient>
    <linearGradient id="svg_1" gradientTransform="matrix(2.5598,0,0,2.5598,88.53,173.37)" gradientUnits="userSpaceOnUse" x1="188.28" y1="103.81" x2="244.48" y2="54.96">
      <stop stop-color="#ee8827" offset="0"/>
      <stop stop-color="#ff9529" offset="0.11"/>
      <stop stop-color="#ff9b2a" offset="0.16"/>
      <stop stop-color="#ffde36" offset="0.73"/>
      <stop stop-color="#fff83a" offset="1"/>
    </linearGradient>
  </defs>
  <g transform="matrix(1.1771,0,0,1.1771,-88.57,-88.57)">
    <path fill="url(#svg_4)" d="m110.24,185.04l326.05,178.16c0,0 49.02,25.19 49.15,72.37 0.13,47.18 0,129.37 0,129.37 0,0 1.64,32.64 -20.99,49.02 -22.63,16.38 -24.86,17.23 -25.75,17.71 0,0 21.07,-13.16 20.48,-39.11 -0.59,-25.96 -45.74,-49.51 -74.24,-66.4 0,0 -76.62,-41.9 -83.12,-46.84 -18.54,-11.76 -174.37,-111.11 -193.62,-294.77z"/>
    <path fill="url(#svg_3)" d="m424.41,550.04c32.66,21.89 34.97,34.17 35.02,44.93 0,12.8 -8.32,28.62 -20.73,36.71 -12.42,8.09 -118.03,71.68 -118.03,71.68 0,0 -27.8,13.46 -27.8,-27.75 0,-41.21 34.86,-122.49 91.49,-149.62 11.13,6.3 32.71,19.15 40.06,24.06z"/>
    <path fill="url(#svg_2)" d="m889.76,814.96l-326.17,-178.27c0,0 -48.94,-25.16 -49.15,-72.37 -0.21,-47.2 0,-129.4 0,-129.4 0,0 -1.64,-32.61 20.99,-49 22.63,-16.38 24.86,-17.23 25.78,-17.71 0,0 -21.09,13.13 -20.48,39.11 0.61,25.98 45.77,49.48 74.24,66.38 0,0 76.62,41.93 83.12,46.87 16.05,10.37 172.28,110.71 191.68,294.38z"/>
    <path fill="url(#svg_1)" d="m575.46,449.96c-32.66,-21.91 -34.97,-34.17 -35.02,-44.95 0,-12.8 8.32,-28.59 20.76,-36.68 12.44,-8.09 118.01,-71.68 118.01,-71.68 0,0 27.8,-13.46 27.8,27.75 0,41.21 -34.84,122.49 -91.49,149.62 -11.13,-6.27 -32.71,-19.07 -40.06,-24.06z"/>
  </g>
</svg>
