<svg xmlns="http://www.w3.org/2000/svg" xmlns:xlink="http://www.w3.org/1999/xlink" viewBox="0 0 304.47 246.08"><defs><style>.a,.b,.c,.d,.e,.f{fill-rule:evenodd;}.a{fill:url(#a);}.b{fill:url(#b);}.c{fill:url(#c);}.d{fill:url(#d);}.e{fill:url(#e);}.f{fill:url(#f);}</style><linearGradient id="a" x1="9.72" y1="15.94" x2="167.91" y2="153.44" gradientUnits="userSpaceOnUse"><stop offset="0" stop-color="#1b73cd"/><stop offset="0.23" stop-color="#1a70c9"/><stop offset="0.46" stop-color="#1669bd"/><stop offset="0.69" stop-color="#115ca9"/><stop offset="0.92" stop-color="#084b8e"/><stop offset="1" stop-color="#054382"/></linearGradient><linearGradient id="b" x1="-6.96" y1="-43.95" x2="234.92" y2="244.32" gradientUnits="userSpaceOnUse"><stop offset="0" stop-color="#338ce4"/><stop offset="0.27" stop-color="#328ae1"/><stop offset="0.48" stop-color="#2e83d7"/><stop offset="0.68" stop-color="#2777c6"/><stop offset="0.86" stop-color="#1d66ae"/><stop offset="1" stop-color="#145697"/></linearGradient><linearGradient id="c" x1="135.7" y1="148.73" x2="80.37" y2="198.55" gradientUnits="userSpaceOnUse"><stop offset="0" stop-color="#113e82"/><stop offset="1" stop-color="#289edc"/></linearGradient><linearGradient id="d" x1="318.42" y1="249.36" x2="162.28" y2="108.77" gradientUnits="userSpaceOnUse"><stop offset="0" stop-color="#ffd80c"/><stop offset="1" stop-color="#ff9f19"/></linearGradient><linearGradient id="e" x1="383.37" y1="370.91" x2="147.25" y2="79.32" gradientUnits="userSpaceOnUse"><stop offset="0" stop-color="#ffff29"/><stop offset="0.54" stop-color="#fffd28"/><stop offset="0.74" stop-color="#fff627"/><stop offset="0.88" stop-color="#ffeb23"/><stop offset="0.99" stop-color="#ffda1f"/><stop offset="1" stop-color="#ffd81e"/></linearGradient><linearGradient id="f" x1="188.28" y1="103.81" x2="244.48" y2="54.96" gradientUnits="userSpaceOnUse"><stop offset="0" stop-color="#ee8827"/><stop offset="0.11" stop-color="#ff9529"/><stop offset="0.16" stop-color="#ff9b2a"/><stop offset="0.73" stop-color="#ffde36"/><stop offset="1" stop-color="#fff83a"/></linearGradient></defs><title>Logotip CORGRAS</title><path class="a" d="M8.48,4.56l127.37,69.6S155,84,155.05,102.43s0,50.54,0,50.54.64,12.75-8.2,19.15-9.71,6.73-10.06,6.92c0,0,8.23-5.14,8-15.28s-17.87-19.34-29-25.94c0,0-29.93-16.37-32.47-18.3C77,115.51,16,76.31,8.48,4.56Z" transform="translate(-8.48 -4.56)"/><path class="b" d="M8.48,4.56l127.37,69.6S155,84,155.05,102.43s0,28.5,0,28.5-1.21-14.28-29.59-31.4c-7.17-4.32-54.13-29.72-55.82-30.66-5.41-3-37-19.13-52-26.9C16.16,37.41,9.87,21.31,8.48,4.56Z" transform="translate(-8.48 -4.56)"/><path class="c" d="M131.21,147.15c12.76,8.55,13.66,13.35,13.68,17.55,0,5-3.25,11.18-8.1,14.34s-46.11,28-46.11,28S79.82,212.3,79.82,196.2s13.62-47.85,35.74-58.45C119.91,140.21,128.34,145.23,131.21,147.15Z" transform="translate(-8.48 -4.56)"/><path class="d" d="M313,250.64,185.58,181s-19.12-9.83-19.2-28.27,0-50.55,0-50.55-.64-12.74,8.2-19.14,9.71-6.73,10.07-6.92c0,0-8.24,5.13-8,15.28s17.88,19.33,29,25.93c0,0,29.93,16.38,32.47,18.31C244.39,139.69,305.42,178.89,313,250.64Z" transform="translate(-8.48 -4.56)"/><path class="e" d="M313,250.64,185.58,181s-19.12-9.84-19.2-28.27,0-28.5,0-28.5,1.2,14.27,29.58,31.4c7.17,4.32,54.14,29.72,55.83,30.66,5.4,3,37,19.13,52,26.9C305.28,217.78,311.57,233.89,313,250.64Z" transform="translate(-8.48 -4.56)"/><path class="f" d="M190.22,108.05c-12.76-8.56-13.66-13.35-13.68-17.56,0-5,3.25-11.17,8.11-14.33s46.1-28,46.1-28S241.61,42.9,241.61,59,228,106.85,205.87,117.45C201.52,115,193.09,110,190.22,108.05Z" transform="translate(-8.48 -4.56)"/></svg>