<?xml version="1.0" standalone="no"?>
<!DOCTYPE svg PUBLIC "-//W3C//DTD SVG 20010904//EN"
 "http://www.w3.org/TR/2001/REC-SVG-20010904/DTD/svg10.dtd">
<svg version="1.0" xmlns="http://www.w3.org/2000/svg"
 width="95.000000pt" height="98.000000pt" viewBox="0 0 95.000000 98.000000"
 preserveAspectRatio="xMidYMid meet">
<metadata>
Created by potrace 1.16, written by Peter Selinger 2001-2019
</metadata>
<g transform="translate(0.000000,98.000000) scale(0.100000,-0.100000)"
fill="#000000" stroke="none">
<path d="M202 777 l-203 -203 3 -139 3 -140 345 342 345 342 -145 0 -146 1
-202 -203z"/>
<path d="M445 670 c-3 -5 4 -27 15 -50 24 -47 8 -55 -26 -12 l-22 27 -36 -34
c-20 -19 -36 -43 -36 -53 0 -11 -5 -15 -15 -12 -23 9 -18 -7 12 -38 32 -33 47
-36 38 -7 -6 17 -4 20 12 15 13 -4 26 1 38 14 15 16 16 22 5 35 -12 14 -10 15
11 10 28 -7 44 7 51 40 2 11 11 20 20 20 33 0 29 14 -11 34 -46 24 -48 24 -56
11z"/>
</g>
</svg>
